<?xml version="1.0"?>
<svg xmlns="http://www.w3.org/2000/svg" xmlns:xlink="http://www.w3.org/1999/xlink" version="1.1" viewBox="0 0 224 224" width="480px" height="480px"><g fill="none" fill-rule="nonzero" stroke="none" stroke-width="1" stroke-linecap="butt" stroke-linejoin="miter" stroke-miterlimit="10" stroke-dasharray="" stroke-dashoffset="0" font-family="none" font-weight="none" font-size="none" text-anchor="none" style="mix-blend-mode: normal"><path d="M0,224v-224h224v224z" fill="none"/><g id="Layer_1"><path d="M196,80.73333c0,95.66667 -84,124.6 -84,124.6c0,0 -84,-28.93333 -84,-124.6c0,-11.66667 0.93333,-21.46667 1.86667,-29.4c1.4,-11.66667 9.33333,-21 20.53333,-23.8c14.46667,-4.2 37.33333,-8.86667 61.6,-8.86667c24.26667,0 47.13333,4.66667 62.06667,8.86667c11.2,2.8 19.13333,12.6 20.53333,23.8c0.46667,7.93333 1.4,18.2 1.4,29.4z" fill="#ffffff"/><path d="M112,32.66667c22.86667,0 44.33333,4.66667 58.33333,8.4c5.6,1.4 9.33333,6.06667 10.26667,12.13333c0.93333,8.86667 1.4,18.2 1.4,27.53333c0,72.8 -53.66667,102.2 -70,109.2c-16.33333,-7.46667 -70,-36.86667 -70,-109.2c0,-9.33333 0.46667,-18.66667 1.4,-27.53333c0.46667,-6.06667 4.66667,-10.73333 10.26667,-12.13333c14,-3.73333 35.46667,-8.4 58.33333,-8.4M112,18.66667c-24.26667,0 -47.13333,4.66667 -62.06667,8.86667c-10.73333,2.8 -19.13333,12.6 -20.06667,23.8c-0.93333,7.93333 -1.86667,18.2 -1.86667,29.4c0,95.66667 84,124.6 84,124.6c0,0 84,-28.93333 84,-124.6c0,-11.66667 -0.93333,-21.46667 -1.86667,-29.4c-1.4,-11.66667 -9.33333,-21 -20.53333,-23.8c-14.46667,-4.2 -37.33333,-8.86667 -61.6,-8.86667z" fill="#4d4d4d"/><rect x="23" y="28" transform="scale(4.66667,4.66667)" width="2" height="8" fill="#666666"/><path d="M112,46.66667c0,0 -28,23.33333 -28,60.66667c0,24.26667 15.4,39.66667 23.33333,46.66667l4.66667,-14l4.66667,14c7.93333,-7 23.33333,-22.4 23.33333,-46.66667c0,-37.33333 -28,-60.66667 -28,-60.66667z" fill="#4d4d4d"/><path d="M112,46.66667c0,0 -28,23.33333 -28,60.66667c0,24.26667 15.4,39.66667 23.33333,46.66667l4.66667,-14z" fill="#666666"/></g></g></svg>
