<?xml version="1.0"?>
<svg xmlns="http://www.w3.org/2000/svg" xmlns:xlink="http://www.w3.org/1999/xlink" version="1.1" viewBox="0 0 224 224" width="480px" height="480px"><g fill="none" fill-rule="nonzero" stroke="none" stroke-width="1" stroke-linecap="butt" stroke-linejoin="miter" stroke-miterlimit="10" stroke-dasharray="" stroke-dashoffset="0" font-family="none" font-weight="none" font-size="none" text-anchor="none" style="mix-blend-mode: normal"><path d="M0,224v-224h224v224z" fill="none"/><g fill="#4d4d4d"><g id="surface1"><path d="M80.28125,89.23177l-22.89583,12.66927c-0.85677,0.47396 -1.38542,1.34896 -1.38542,2.29687v25.35677c0,0.94792 0.52864,1.82292 1.38542,2.29687l22.89583,12.6875c0.85677,0.45573 1.91406,0.45573 2.77083,0l22.89583,-12.6875c0.85677,-0.47396 1.38542,-1.34896 1.38542,-2.29687v-25.35677c0,-0.94792 -0.52864,-1.82292 -1.38542,-2.29687l-22.89583,-12.66927c-0.4375,-0.23698 -0.91146,-0.34636 -1.38542,-0.34636c-0.47396,0 -0.94792,0.10938 -1.38542,0.34636"/><path d="M198.09636,112.05469l-3.80989,2.11458c-0.14583,0.07292 -0.21875,0.21875 -0.21875,0.38281v4.22917c0,0.16406 0.07292,0.30989 0.21875,0.38281l3.80989,2.11458c0.14583,0.07292 0.32812,0.07292 0.47396,0l3.8099,-2.11458c0.14583,-0.07292 0.23698,-0.21875 0.23698,-0.38281v-4.22917c0,-0.16406 -0.09114,-0.30989 -0.23698,-0.38281l-3.8099,-2.11458c-0.07292,-0.03646 -0.16406,-0.05469 -0.23698,-0.05469c-0.07292,0 -0.16406,0.01823 -0.23698,0.05469"/><path d="M166.83333,62.36198l-11.13802,-6.21614c-0.36458,-0.20052 -0.78385,-0.20052 -1.13021,0.01823c-0.34636,0.20052 -0.56511,0.56511 -0.56511,0.96615v37.58854l-10.28125,-5.70573c-0.4375,-0.23698 -0.91146,-0.34636 -1.38542,-0.34636c-0.47396,0 -0.94792,0.10938 -1.38542,0.34636l-22.89583,12.66927c-0.85677,0.47396 -1.38542,1.34896 -1.38542,2.29687v25.35677c0,0.94792 0.52864,1.82292 1.38542,2.29687l22.89583,12.6875c0.85677,0.45573 1.91406,0.45573 2.77083,0l22.89583,-12.6875c0.85677,-0.47396 1.38542,-1.34896 1.38542,-2.29687v-64.98698c0,-0.82032 -0.45573,-1.58594 -1.16667,-1.98698zM153.38021,123.46614l-10.40886,5.76042c-0.38281,0.21875 -0.875,0.21875 -1.25781,0l-10.40886,-5.76042c-0.40104,-0.21875 -0.63802,-0.61979 -0.63802,-1.03906v-11.52083c0,-0.4375 0.23698,-0.83854 0.63802,-1.05729l10.40886,-5.76042h-0.01823c0.20052,-0.10938 0.41927,-0.14583 0.63802,-0.14583c0.21875,0 0.4375,0.05468 0.63802,0.14583l10.39062,5.76042c0.40104,0.21875 0.63802,0.61979 0.63802,1.05729v11.52083c0,0.41927 -0.23698,0.82031 -0.61979,1.03906z"/><path d="M80.28125,89.23177l-24.28125,40.32292c0,0.94792 0.52864,1.82292 1.38542,2.29687l22.89583,12.6875c0.85677,0.45573 1.91406,0.45573 2.77083,0l24.28125,-40.34114c0,-0.94792 -0.52864,-1.82292 -1.38542,-2.29687l-22.89583,-12.66927c-0.4375,-0.23698 -0.91146,-0.34636 -1.38542,-0.34636c-0.47396,0 -0.94792,0.10938 -1.38542,0.34636"/><path d="M80.28125,89.23177l-22.89583,12.66927c-0.85677,0.47396 -1.38542,1.34896 -1.38542,2.29687l24.28125,40.34114c0.85677,0.45573 1.91406,0.45573 2.77083,0l22.89583,-12.6875c0.85677,-0.47396 1.38542,-1.34896 1.38542,-2.29687l-24.28125,-40.32292c-0.4375,-0.23698 -0.91146,-0.34636 -1.38542,-0.34636c-0.47396,0 -0.94792,0.10938 -1.38542,0.34636"/><path d="M222.61458,101.68229l-22.89583,-12.66927c-0.4375,-0.23698 -0.91146,-0.34636 -1.38542,-0.34636c-0.47396,0 -0.94792,0.10938 -1.38542,0.34636l-22.89583,12.66927c-0.85677,0.47396 -1.38542,1.38542 -1.38542,2.35156v25.24739c0,0.98438 0.52864,1.87761 1.38542,2.35156l22.89583,12.6875c0.875,0.47396 1.91406,0.47396 2.77083,0l10.57292,-5.85156c0.96614,-0.52864 0.94792,-1.91406 -0.01823,-2.46094l-22.96875,-12.52343c-0.40104,-0.23698 -0.63802,-0.63802 -0.63802,-1.07552v-11.50261c0,-0.4375 0.23698,-0.82031 0.60156,-1.03906l10.42708,-5.76042c0.20052,-0.10938 0.41927,-0.16406 0.63802,-0.16406c0.21875,0 0.4375,0.05468 0.61979,0.16406l10.42708,5.77864c0.38281,0.20052 0.61979,0.60156 0.61979,1.02083v9.38802c0,0.40104 0.21875,0.78386 0.56511,0.98437c0.34636,0.18229 0.76562,0.18229 1.13021,-0.01823l11.19271,-6.48958c0.67448,-0.40104 1.11198,-1.14844 1.11198,-1.95052v-8.76823c0,-0.98437 -0.52864,-1.89583 -1.38542,-2.36979z"/><path d="M49.94792,101.68229l-22.89583,-12.66927c-0.4375,-0.23698 -0.91146,-0.34636 -1.38542,-0.34636c-0.47396,0 -0.94792,0.10938 -1.38542,0.34636l-22.89583,12.66927c-0.85677,0.47396 -1.38542,1.38542 -1.38542,2.35156v34.83594c0,0.40104 0.21875,0.78385 0.56511,0.98437c0.34636,0.20052 0.78386,0.20052 1.13021,0l11.19271,-6.50781c0.69271,-0.40104 1.11198,-1.14844 1.11198,-1.95052v-20.48958c0,-0.4375 0.23698,-0.83854 0.60156,-1.03906l10.42708,-5.76042c0.20052,-0.10938 0.41927,-0.16406 0.63802,-0.16406c0.21875,0 0.4375,0.05468 0.63802,0.16406l10.42708,5.76042c0.36458,0.21875 0.60156,0.60156 0.60156,1.03906v20.48958c0,0.80208 0.41927,1.54948 1.11198,1.95052l11.19271,6.50781c0.36458,0.20052 0.78386,0.20052 1.13021,0c0.34636,-0.20052 0.56511,-0.58333 0.56511,-0.98437v-34.81771c0,-0.98437 -0.52864,-1.89583 -1.38542,-2.36979z"/></g></g></g></svg>
